# xmcd
#
# Track frame offsets: 
#        150
#        20621
#        36494
#        59173
#        77316
#        99994
#        111331
#        130608
#        136134
#        148749
#        170292
#        192402
#        219123
#        244209
#        265550
#        294798
#        307266
#        323574
#        330309
#
# Disc length: 4675 seconds
#
# Revision: 0
# Processed by: cddbd v1.5.2PL0 Copyright (c) Steve Scherf et al.
# Submitted via: ExactAudioCopy v0.95a5
#
DISCID=0a124113
DTITLE=Various Artist - Sneakerz 6 [Mixed By Gregor Salto and Ericke]
DYEAR=2008
DGENRE=House
TTITLE0=Kentphonik Feat Lolo - Happiness [Gregor Salto And DJ Madskill
TTITLE0=z EU Remix]
TTITLE1=DJ Madskillz - Secret Life
TTITLE2=Till West And Eddie Thoneick Vs Alexandra Prince - Hi N Bye [G
TTITLE2=regor Salto And DJ Madskillz 
TTITLE3=Mona Lisa - Dancin [Ron Carroll And Gregor Salto Remix]
TTITLE4=Gregor Salto And DJ Madskillz - Fuse
TTITLE5=Afrojack - Do My Dance
TTITLE6=Mastiksoul - Jacobino [Original Mix]
TTITLE7=Gregor Salto - Just For Fun
TTITLE8=Gregor Salto And Sidney Samson - Robotic [Original Mix]
TTITLE9=Body Talk Feat David Goncalves - Akordeon [Danny Corten Mix]
TTITLE10=Bingo Players Vs Chocolate Puma - Touch Me
TTITLE11=Joe Flame - Ocean View [Valentino Larosa Remix]
TTITLE12=Axwell And Sebastian Ingrosso vs. Salem Al Fakir - It's True 
TTITLE12=[Roog And Prom Remix]
TTITLE13=Bryan Dalton - Keep it Comin
TTITLE14=Eddie Thoneick - I Wanna Freak You [Original Mix]
TTITLE15=Masi And Mello - The Afterworld [Masi And Mellos Re-Work Dub]
TTITLE16=Ericke - [Wanna] Go Again
TTITLE17=Franky Rizardo - Flute Test
TTITLE18=Radioclit - Divine Gosa [Switch Remix]
EXTD=
EXTT0=
EXTT1=
EXTT2=
EXTT3=
EXTT4=
EXTT5=
EXTT6=
EXTT7=
EXTT8=
EXTT9=
EXTT10=
EXTT11=
EXTT12=
EXTT13=
EXTT14=
EXTT15=
EXTT16=
EXTT17=
EXTT18=
PLAYORDER=
